<?xml version="1.0" encoding="utf-8"?>
<!-- Generator: Adobe Illustrator 16.0.0, SVG Export Plug-In . SVG Version: 6.00 Build 0)  -->
<!DOCTYPE svg PUBLIC "-//W3C//DTD SVG 1.1//EN" "http://www.w3.org/Graphics/SVG/1.1/DTD/svg11.dtd">
<svg version="1.1" id="Layer_1" xmlns="http://www.w3.org/2000/svg" xmlns:xlink="http://www.w3.org/1999/xlink" x="0px" y="0px"
	 width="335.986px" height="235.19px" viewBox="0 0 335.986 235.19" enable-background="new 0 0 335.986 235.19"
	 xml:space="preserve">
<g>
	<g>
		<g>
			<rect x="0" fill="#D7F1FF" width="335.987" height="235.191"/>
		</g>
	</g>
</g>
<g opacity="0.1">
	<g>
		<path fill="#36566F" d="M243.711,78.655h-13.449v-29.59v-9.106v-5.763c0-1.642-1.348-2.982-2.992-2.982H118.279
			c-1.647,0-2.993,1.341-2.993,2.982v5.763v9.106v29.59H101.76c-3.674,0-6.682,3.006-6.682,6.682v49.802H28.57
			c-1.647,0-2.993,1.34-2.993,2.982v5.762v9.107v64.105c0,1.641,1.346,2.982,2.993,2.982h94.99c1.646,0,2.992-1.342,2.992-2.982
			v-38.459h30.187l-2.433,24.545h-8.562c-1.223,0-2.223,1.215-2.223,2.701v1.51c0,1.486,1,2.703,2.223,2.703h54.059
			c1.223,0,2.225-1.217,2.225-2.703v-1.51c0-1.486-1.002-2.701-2.225-2.701h-8.623l-2.256-24.545h54.787
			c3.676,0,6.682-3.006,6.682-6.682V85.337C250.393,81.661,247.387,78.655,243.711,78.655z"/>
	</g>
	<g>
		<path fill="#36566F" d="M319.066,19.942h-71.68c-2.068,0-3.76,1.684-3.76,3.746v18.945c0,2.06,1.691,3.746,3.76,3.746h71.68
			c2.066,0,3.76-1.687,3.76-3.746V23.688C322.826,21.626,321.133,19.942,319.066,19.942z"/>
	</g>
	<g>
		<path fill="#36566F" d="M306.691,102.116c2.209,0,4-1.79,4-4V62.181c0-2.209-1.791-4-4-4h-35.938c-2.209,0-4,1.791-4,4v35.936
			c0,2.21,1.791,4,4,4H306.691z"/>
	</g>
	<g>
		<path fill="#36566F" d="M42.167,78.823c-2.209,0-4,1.791-4,4v35.936c0,2.209,1.791,4,4,4h35.937c2.209,0,4-1.791,4-4V82.823
			c0-2.209-1.791-4-4-4H42.167z"/>
	</g>
	<g>
		<path fill="#36566F" d="M97.363,68.791c2.068,0,3.761-1.685,3.761-3.744V46.102c0-2.062-1.692-3.747-3.761-3.747H25.684
			c-2.067,0-3.761,1.685-3.761,3.747v18.945c0,2.06,1.693,3.744,3.761,3.744H97.363z"/>
	</g>
	<g>
		<path fill="#36566F" d="M318.877,126.77h-54.848c-1.646,0-2.992,1.342-2.992,2.982v5.764v9.105v72.107
			c0,1.641,1.346,2.982,2.992,2.982h54.848c1.645,0,2.992-1.342,2.992-2.982v-72.107v-9.105v-5.764
			C321.869,128.111,320.521,126.77,318.877,126.77z"/>
	</g>
</g>
<g>
	<path fill="#36566F" d="M245.57,166.068c0,3.676-3.006,6.682-6.684,6.682H96.937c-3.674,0-6.682-3.006-6.682-6.682V79.45
		c0-3.676,3.008-6.682,6.682-6.682h141.95c3.678,0,6.684,3.006,6.684,6.682V166.068z"/>
</g>
<g>
	<rect x="95.679" y="78.521" fill="#FF9D84" width="143.422" height="87.683"/>
</g>
<g>
	<polygon fill="#A2A8A8" points="151.916,172.75 149.126,200.891 186.656,200.543 184.102,172.75 	"/>
</g>
<g>
	<path fill="#36566F" d="M197.203,201.506c0,1.486-1.002,2.703-2.225,2.703H140.92c-1.223,0-2.223-1.217-2.223-2.703v-1.51
		c0-1.486,1-2.701,2.223-2.701h54.058c1.223,0,2.225,1.215,2.225,2.701V201.506z"/>
</g>
<g>
	<g>
		<path fill="#324A5E" d="M225.438,28.31c0-1.642-1.346-2.982-2.992-2.982h-108.99c-1.647,0-2.993,1.341-2.993,2.982v5.763h114.975
			V28.31z"/>
	</g>
	<g>
		<path fill="#6E9FBD" d="M110.462,34.072v73.213c0,1.64,1.346,2.982,2.993,2.982h108.99c1.646,0,2.992-1.343,2.992-2.982V34.072
			H110.462z"/>
	</g>
</g>
<g>
	<rect x="110.462" y="34.072" fill="#E6E9EE" width="114.975" height="9.106"/>
</g>
<g>
	<g>
		<ellipse fill="#FFEF5A" cx="218.938" cy="29.765" rx="2.435" ry="2.425"/>
	</g>
	<g>
		<ellipse fill="#FFFDFE" cx="211.469" cy="29.7" rx="2.434" ry="2.425"/>
	</g>
	<g>
		<ellipse fill="#90EAFE" cx="204.102" cy="29.7" rx="2.434" ry="2.425"/>
	</g>
</g>
<g>
	<polygon fill="#E7E9ED" points="138.994,34.072 114.196,34.072 115.195,29.271 137.997,29.271 	"/>
</g>
<g>
	<polygon fill="#A9B0B8" points="188.594,34.072 163.794,34.072 164.793,29.271 187.596,29.271 	"/>
</g>
<g>
	<rect x="127.634" y="35.838" fill="#FFFFFF" width="93.739" height="5.577"/>
</g>
<g>
	<g>
		<g>
			<path fill="#324A5E" d="M121.729,132.234c0-1.643-1.347-2.982-2.992-2.982h-94.99c-1.647,0-2.993,1.34-2.993,2.982v5.762h100.976
				V132.234z"/>
		</g>
		<g>
			<path fill="#6E9FBD" d="M20.753,137.996v73.213c0,1.641,1.346,2.982,2.993,2.982h94.99c1.646,0,2.992-1.342,2.992-2.982v-73.213
				H20.753z"/>
		</g>
	</g>
	<g>
		<rect x="20.753" y="137.996" fill="#E6E9EE" width="100.976" height="9.107"/>
	</g>
	<g>
		<g>
			<ellipse fill="#FFEF5A" cx="115.229" cy="133.689" rx="2.434" ry="2.424"/>
		</g>
		<g>
			<ellipse fill="#FFFDFE" cx="107.76" cy="133.625" rx="2.434" ry="2.424"/>
		</g>
		<g>
			<ellipse fill="#90EAFE" cx="100.393" cy="133.625" rx="2.434" ry="2.424"/>
		</g>
	</g>
	<g>
		<polygon fill="#E7E9ED" points="47.285,137.996 24.487,137.996 25.486,133.195 46.288,133.195 		"/>
	</g>
	<g>
		<polygon fill="#CDD5E0" points="70.085,137.996 47.285,137.996 48.285,133.195 69.087,133.195 		"/>
	</g>
	<g>
		<polygon fill="#A9B0B8" points="92.884,137.996 70.085,137.996 71.084,133.195 91.887,133.195 		"/>
	</g>
	<g>
		<rect x="39.925" y="139.762" fill="#FFFFFF" width="77.738" height="5.578"/>
	</g>
</g>
<g>
	<g>
		<rect x="120.147" y="54.795" fill="#FFFFFF" width="19.458" height="2.288"/>
	</g>
	<g>
		<rect x="120.147" y="62.573" fill="#FFFFFF" width="19.458" height="2.287"/>
	</g>
	<g>
		<rect x="120.147" y="70.395" fill="#FFFFFF" width="19.458" height="2.285"/>
	</g>
</g>
<g>
	<g>
		<rect x="120.147" y="79.067" fill="#FFFFFF" width="19.458" height="2.288"/>
	</g>
	<g>
		<rect x="120.147" y="86.846" fill="#FFFFFF" width="19.458" height="2.286"/>
	</g>
	<g>
		<rect x="120.147" y="94.667" fill="#FFFFFF" width="19.458" height="2.285"/>
	</g>
</g>
<g>
	<g>
		<rect x="195.98" y="54.795" fill="#FFFFFF" width="19.459" height="2.288"/>
	</g>
	<g>
		<rect x="195.98" y="62.573" fill="#FFFFFF" width="19.459" height="2.287"/>
	</g>
	<g>
		<rect x="195.98" y="70.395" fill="#FFFFFF" width="19.459" height="2.285"/>
	</g>
</g>
<g>
	<g>
		<rect x="195.98" y="79.067" fill="#FFFFFF" width="19.459" height="2.288"/>
	</g>
	<g>
		<rect x="195.98" y="86.846" fill="#FFFFFF" width="19.459" height="2.286"/>
	</g>
	<g>
		<rect x="195.98" y="94.667" fill="#FFFFFF" width="19.459" height="2.285"/>
	</g>
</g>
<g>
	<path fill="#FF9D84" d="M318.004,36.747c0,2.06-1.693,3.746-3.762,3.746h-71.678c-2.068,0-3.762-1.687-3.762-3.746V17.802
		c0-2.062,1.693-3.746,3.762-3.746h71.678c2.068,0,3.762,1.684,3.762,3.746V36.747z"/>
</g>
<g>
	<g>
		<rect x="242.592" y="19.264" fill="#FFFFFF" width="68.848" height="2.054"/>
	</g>
	<g>
		<rect x="242.592" y="26.248" fill="#FFFFFF" width="68.848" height="2.054"/>
	</g>
	<g>
		<rect x="242.592" y="33.272" fill="#FFFFFF" width="33.098" height="2.053"/>
	</g>
</g>
<g>
	<rect x="30.443" y="156.414" fill-rule="evenodd" clip-rule="evenodd" fill="#324A5E" width="81.597" height="49.779"/>
</g>
<g>
	<rect x="30.443" y="192.566" fill-rule="evenodd" clip-rule="evenodd" fill="#FF9D84" width="81.597" height="13.627"/>
</g>
<g>
	<path fill-rule="evenodd" clip-rule="evenodd" fill="#FFFDFF" d="M43.979,199.564l-6.456,3.742
		c-0.138,0.08-0.312,0.119-0.491,0.125c-0.014,0.002-0.028,0.008-0.046,0.008c-0.362,0-0.655-0.234-0.655-0.521v-7.326
		c0-0.287,0.293-0.521,0.653-0.521c-0.003,0-0.003,0-0.004,0h0.006c0.006,0,0.009,0,0.011,0c0.191,0.002,0.382,0.043,0.526,0.129
		l6.456,3.74C44.276,199.113,44.276,199.391,43.979,199.564z"/>
</g>
<g>
	<rect x="49.555" y="198.229" fill-rule="evenodd" clip-rule="evenodd" fill="#FFFDFF" width="57.963" height="2.096"/>
</g>
<g>
	<circle fill-rule="evenodd" clip-rule="evenodd" fill="#324A5E" cx="60.967" cy="199.268" r="3.032"/>
</g>
<g>
	<g>
		<polygon fill="#FEFFFD" points="125.886,120.371 144.419,152.307 166.826,131.783 		"/>
	</g>
	<g>
		<polygon fill="#D0D2D3" points="125.886,120.371 157.482,140.342 156.46,145.971 		"/>
	</g>
</g>
<g>
	<g>
		<path fill="#FFFFFF" d="M191.66,75.478c0,12.809-10.42,23.187-23.27,23.187c-12.849,0-23.269-10.378-23.269-23.187
			c0-12.808,10.42-23.184,23.269-23.184C181.24,52.294,191.66,62.67,191.66,75.478z"/>
	</g>
	<g>
		<g>
			<path fill="#36566F" d="M177.607,69.324c0,5.073-4.129,9.181-9.218,9.181c-5.085,0-9.211-4.107-9.211-9.181
				c0-5.075,4.126-9.183,9.211-9.183C173.479,60.142,177.607,64.249,177.607,69.324z"/>
		</g>
		<g>
			<path fill="#36566F" d="M168.39,98.664c5.934,0,11.333-2.229,15.44-5.873c-0.057-8.456-6.945-15.289-15.44-15.289
				c-8.491,0-15.383,6.833-15.436,15.289C157.064,96.435,162.459,98.664,168.39,98.664z"/>
		</g>
	</g>
</g>
<g>
	<g>
		<g>
			<path fill="#FFFFFF" d="M37.156,174.943c0-0.299,0.119-0.586,0.332-0.799l4.226-4.227c0.442-0.441,1.158-0.441,1.6,0
				c0.442,0.441,0.442,1.158,0,1.6l-2.603,3.426l2.603,3.428c0.442,0.441,0.442,1.158,0,1.6c-0.441,0.441-1.157,0.441-1.6,0
				l-4.226-4.227C37.275,175.533,37.156,175.246,37.156,174.943z"/>
		</g>
	</g>
</g>
<g>
	<g>
		<g>
			<path fill="#FFFFFF" d="M105.326,174.943c0,0.301-0.119,0.59-0.332,0.801l-4.226,4.227c-0.442,0.441-1.158,0.441-1.6,0
				c-0.442-0.441-0.442-1.158,0-1.6l2.604-3.428l-2.604-3.426c-0.442-0.441-0.442-1.158,0-1.6c0.441-0.441,1.157-0.441,1.6,0
				l4.226,4.227C105.207,174.357,105.326,174.645,105.326,174.943z"/>
		</g>
	</g>
</g>
<g>
	<path fill="#FFFFFF" d="M92.884,183.307c0,2.357-1.912,4.27-4.271,4.27H54.18c-2.358,0-4.271-1.912-4.271-4.27v-18.039
		c0-2.359,1.912-4.271,4.271-4.271h34.434c2.358,0,4.271,1.912,4.271,4.271V183.307z"/>
</g>
<g>
	<path fill="#324A5E" d="M305.867,92.229c0,2.21-1.791,4-4,4h-35.936c-2.209,0-4-1.79-4-4V56.294c0-2.209,1.791-4,4-4h35.936
		c2.209,0,4,1.791,4,4V92.229z"/>
</g>
<g>
	<path fill="#FF9D84" d="M77.28,112.872c0,2.21-1.791,4-4,4H37.343c-2.209,0-4-1.79-4-4V76.937c0-2.209,1.791-4,4-4H73.28
		c2.209,0,4,1.791,4,4V112.872z"/>
</g>
<g>
	<path fill="#FFFFFF" d="M296.811,74.53l-2.26,8.498c-0.373,1.613-1.811,2.744-3.467,2.744h-12.387V70.194l2.234-8.056
		c0.266-1.712,2.043-2.861,3.846-2.17c1.078,0.414,1.723,1.537,1.723,2.692v6.232c0,0.719,0.582,1.273,1.301,1.273h5.543
		C295.633,70.167,297.324,72.303,296.811,74.53 M270.896,72.795v10.402c0,1.438,1.162,2.575,2.6,2.575h2.602V70.167h-2.602
		C272.059,70.167,270.896,71.358,270.896,72.795"/>
</g>
<g>
	<path fill="#FFFFFF" d="M48.126,83.948h12.386v15.577l-2.233,8.057c-0.212,1.366-1.386,2.375-2.769,2.375
		c-1.546,0-2.8-1.254-2.8-2.801v-7.603h-6.844c-2.289,0-3.98-2.133-3.467-4.363l2.26-8.498
		C45.034,85.079,46.469,83.948,48.126,83.948 M63.113,99.554h5.202V83.948h-5.202V99.554z"/>
</g>
<g>
	<path fill="#1D1D1B" d="M171.874,153.993c-1.57,0-3.11-0.21-4.575-0.623l0.271-0.963c1.529,0.432,3.137,0.633,4.793,0.579l0.029,1
		C172.219,153.991,172.046,153.993,171.874,153.993z M177.441,153.261l-0.25-0.969c1.579-0.408,3.119-0.985,4.575-1.714l0.447,0.895
		C180.694,152.232,179.089,152.834,177.441,153.261z M162.626,151.271c-1.33-0.828-2.646-1.845-4.025-3.107l0.676-0.738
		c1.333,1.222,2.601,2.201,3.878,2.996L162.626,151.271z M186.497,148.697l-0.637-0.771c1.291-1.067,2.403-2.262,3.308-3.548
		l0.818,0.574C189.031,146.312,187.857,147.572,186.497,148.697z M192.438,140.449l-0.955-0.295
		c0.316-1.022,0.477-2.079,0.477-3.141c0-0.524-0.04-1.056-0.119-1.579l0.988-0.15c0.087,0.573,0.131,1.155,0.131,1.729
		C192.96,138.176,192.784,139.332,192.438,140.449z M189.436,138.148c-1.619-0.256-3.265-0.771-4.889-1.532l0.424-0.906
		c1.54,0.722,3.095,1.21,4.621,1.45L189.436,138.148z M194.601,137.907l-0.283-0.959c1.308-0.388,2.703-0.971,4.523-1.893
		l0.451,0.893C197.416,136.897,195.97,137.502,194.601,137.907z M180.189,133.964c-0.72-0.553-2.508-2.025-3.553-3.745l0.855-0.52
		c0.956,1.576,2.631,2.953,3.307,3.472L180.189,133.964z M203.725,133.626l-0.457-0.889l0.124-0.062
		c1.546-0.571,3.108-1.101,4.686-1.592l0.297,0.955c-1.561,0.485-3.106,1.01-4.596,1.558L203.725,133.626z M190.118,131.014
		c-0.44-0.662-0.956-1.289-1.532-1.865c-0.546-0.546-1.167-1.055-1.844-1.51l0.559-0.83c0.73,0.492,1.4,1.041,1.992,1.633
		c0.623,0.622,1.181,1.302,1.657,2.02L190.118,131.014z M213.162,130.684l-0.246-0.969c1.64-0.418,3.29-0.79,4.905-1.106l0.193,0.98
		C216.417,129.902,214.784,130.271,213.162,130.684z M222.917,128.789l-0.129-0.992c1.705-0.221,3.393-0.377,5.015-0.465
		l0.055,0.998C226.26,128.417,224.597,128.571,222.917,128.789z M177.864,126l-0.506-0.861c1.229-0.724,3.009-0.9,5.011-0.502
		l0.242,0.062l-0.256,0.967l-0.204-0.053C180.463,125.277,178.878,125.404,177.864,126z"/>
</g>
<g>
	<path fill="#1D1D1B" d="M31.6,38.715l-0.864-0.504c0.929-1.594,1.797-2.992,2.654-4.274l0.831,0.556
		C33.376,35.758,32.519,37.139,31.6,38.715z M37.152,30.504l-0.774-0.633c1.115-1.365,2.272-2.614,3.441-3.712l0.685,0.729
		C39.367,27.956,38.239,29.172,37.152,30.504z M150.852,28.585c-1.028-1.375-2.074-2.601-3.199-3.749l0.714-0.7
		c1.157,1.18,2.232,2.44,3.286,3.851L150.852,28.585z M97.208,24.099c-1.337,0-2.823-0.117-4.543-0.359l0.139-0.99
		c1.89,0.265,3.458,0.378,4.902,0.343l0.023,1C97.557,24.097,97.383,24.099,97.208,24.099z M44.337,23.837l-0.539-0.843
		c1.412-0.903,2.928-1.691,4.508-2.344l0.382,0.925C47.163,22.205,45.699,22.965,44.337,23.837z M102.793,23.139l-0.38-0.925
		l0.121-0.051c1.406-0.636,2.764-1.582,4.034-2.496l0.584,0.812c-1.311,0.944-2.716,1.922-4.211,2.598L102.793,23.139z
		 M87.714,22.877c-1.644-0.321-3.275-0.664-4.905-1.009l0.207-0.979c1.625,0.344,3.251,0.686,4.89,1.006L87.714,22.877z
		 M143.96,21.581c-0.727-0.554-1.5-1.099-2.297-1.62c-0.571-0.312-1.203-0.635-1.857-0.947l0.431-0.902
		c0.672,0.32,1.321,0.652,1.941,0.993c0.851,0.554,1.644,1.113,2.39,1.682L143.96,21.581z M77.919,20.842
		c-1.866-0.379-3.422-0.673-4.896-0.925l0.168-0.985c1.485,0.253,3.051,0.549,4.927,0.931L77.919,20.842z M53.369,20.077
		l-0.23-0.973c1.568-0.372,3.247-0.654,4.99-0.837l0.104,0.994C56.532,19.44,54.896,19.715,53.369,20.077z M68.104,19.202
		c-0.496-0.058-0.994-0.112-1.496-0.161c-0.911-0.034-1.854-0.054-2.798-0.054l-0.634,0.003l-0.009-1l0.643-0.003
		c0.957,0,1.913,0.021,2.866,0.057c0.537,0.052,1.042,0.106,1.544,0.165L68.104,19.202z M111.252,17.729l-0.481-0.877
		c0.33-0.181,0.663-0.349,1.001-0.501c1.217-0.491,2.494-0.899,3.816-1.223l0.237,0.972c-1.276,0.312-2.507,0.706-3.661,1.17
		C111.87,17.404,111.559,17.561,111.252,17.729z M135.229,17.152c-1.583-0.542-3.184-0.991-4.758-1.333l0.213-0.978
		c1.611,0.351,3.249,0.81,4.869,1.365L135.229,17.152z M120.682,15.305l-0.091-0.996c1.273-0.117,2.606-0.173,3.994-0.173
		c0.354,0,0.707,0.004,1.058,0.012l-0.022,1c-0.362-0.008-0.713-0.01-1.092-0.012C123.201,15.135,121.907,15.192,120.682,15.305z"/>
</g>
<g>
	<g>
		<path fill="#324A5E" d="M96.3,59.16c0,2.06-1.692,3.744-3.761,3.744H20.861c-2.067,0-3.761-1.685-3.761-3.744V40.215
			c0-2.062,1.693-3.747,3.761-3.747H92.54c2.068,0,3.761,1.685,3.761,3.747V59.16z"/>
	</g>
	<g>
		<g>
			<rect x="20.887" y="41.675" fill="#FFFFFF" width="68.849" height="2.055"/>
		</g>
		<g>
			<rect x="20.887" y="48.66" fill="#FFFFFF" width="68.849" height="2.055"/>
		</g>
		<g>
			<rect x="20.887" y="55.684" fill="#FFFFFF" width="33.099" height="2.056"/>
		</g>
	</g>
</g>
<g>
	<polygon fill="#CDD5E0" points="163.794,34.072 138.994,34.072 139.994,29.271 162.796,29.271 	"/>
</g>
<g>
	<path fill="#1D1D1B" d="M242.594,218.444c-0.504-0.001-0.995-0.024-1.461-0.07l0.098-0.996c1.429,0.141,3.072,0.05,4.831-0.288
		l0.189,0.982C244.964,218.319,243.733,218.444,242.594,218.444z M251.133,216.689l-0.34-0.941c1.365-0.492,2.823-1.092,4.589-1.888
		l0.41,0.912C254.004,215.578,252.522,216.188,251.133,216.689z M236.259,216.558c-1.27-1.007-2.221-2.417-2.907-4.311l0.939-0.342
		c0.622,1.715,1.469,2.98,2.589,3.869L236.259,216.558z M260.342,212.634l-0.457-0.891c1.483-0.76,2.955-1.534,4.417-2.322
		l0.475,0.881C263.309,211.092,261.831,211.87,260.342,212.634z M269.164,207.885l-0.49-0.871c1.453-0.816,2.897-1.644,4.333-2.479
		l0.504,0.863C272.069,206.237,270.621,207.066,269.164,207.885z M232.178,207.297l-0.185-1.133
		c-0.202-1.262-0.411-2.565-0.692-3.761l0.973-0.229c0.29,1.229,0.502,2.552,0.707,3.831l0.184,1.127L232.178,207.297z
		 M277.821,202.855l-0.514-0.859c1.431-0.854,2.855-1.716,4.275-2.583l0.521,0.854C280.681,201.136,279.254,201.999,277.821,202.855
		z M229.436,198.071c-0.908-1.074-2.219-1.816-4.009-2.27l0.246-0.969c1.998,0.505,3.479,1.354,4.526,2.592L229.436,198.071z
		 M286.368,197.648l-0.525-0.852l4.25-2.632l0.527,0.85L286.368,197.648z M220.572,195.218c-0.829-0.032-1.667-0.047-2.496-0.062
		c-0.85-0.015-1.691-0.029-2.509-0.062l0.041-1c0.809,0.033,1.643,0.048,2.484,0.062c0.837,0.015,1.682,0.029,2.519,0.062
		L220.572,195.218z M210.517,194.412c-1.743-0.448-3.325-1.146-4.7-2.073l0.559-0.83c1.281,0.864,2.758,1.515,4.392,1.935
		L210.517,194.412z M202.137,188.745c-0.922-1.265-1.728-2.727-2.463-4.47l0.922-0.389c0.705,1.671,1.474,3.067,2.35,4.271
		L202.137,188.745z M198.019,179.499c-0.447-1.527-0.854-3.116-1.249-4.651l-0.051-0.196l0.969-0.248l0.05,0.195
		c0.393,1.528,0.799,3.108,1.24,4.619L198.019,179.499z"/>
</g>
<g>
	<g>
		<g>
			<path fill="#324A5E" d="M317.045,123.865c0-1.641-1.346-2.982-2.992-2.982h-54.846c-1.648,0-2.994,1.342-2.994,2.982v5.764
				h60.832V123.865z"/>
		</g>
		<g>
			<path fill="#6E9FBD" d="M256.213,129.629v81.213c0,1.641,1.346,2.982,2.994,2.982h54.846c1.646,0,2.992-1.342,2.992-2.982
				v-81.213H256.213z"/>
		</g>
	</g>
	<g>
		<rect x="256.213" y="129.629" fill="#E6E9EE" width="60.832" height="9.105"/>
	</g>
	<g>
		<g>
			<ellipse fill="#FFEF5A" cx="310.546" cy="125.32" rx="2.435" ry="2.426"/>
		</g>
		<g>
			<ellipse fill="#FFFDFE" cx="303.076" cy="125.256" rx="2.434" ry="2.426"/>
		</g>
		<g>
			<ellipse fill="#90EAFE" cx="295.709" cy="125.256" rx="2.434" ry="2.426"/>
		</g>
	</g>
	<g>
		<rect x="267.885" y="131.395" fill="#FFFFFF" width="45.096" height="5.576"/>
	</g>
</g>
<g>
	<path fill="#FF9D84" d="M278.922,148.637c-1.928,0-3.492,1.562-3.492,3.492l0.406,11.727l22.838,22.838l11.109-11.109v-7.406
		l-19.133-19.135L278.922,148.637z M285.096,158.301c-1.365,1.363-3.574,1.363-4.939,0c-1.361-1.363-1.361-3.574,0-4.939
		c1.365-1.361,3.574-1.361,4.939,0C286.459,154.727,286.459,156.938,285.096,158.301"/>
</g>
<g>
	<path fill="#FAFAFA" d="M280.156,153.361c1.361-1.359,3.576-1.359,4.939,0c1.361,1.363,1.361,3.578,0,4.939
		c-1.363,1.361-3.578,1.361-4.939,0S278.795,154.725,280.156,153.361 M278.922,152.129c-2.045,2.045-2.045,5.361,0,7.406
		c2.047,2.047,5.361,2.047,7.408,0c2.045-2.045,2.045-5.361,0-7.406C284.283,150.084,280.969,150.084,278.922,152.129"/>
</g>
<g>
	<polygon fill="#C77A67" points="306.082,171.879 309.783,175.584 309.783,168.178 	"/>
</g>
<g>
	<path fill="#324A5E" d="M268.035,152.854c-1.93,0-3.492,1.562-3.492,3.492l0.406,11.727l22.836,22.838l11.113-11.109v-7.408
		l-19.135-19.135L268.035,152.854z M274.207,162.518c-1.363,1.363-3.574,1.363-4.938,0s-1.363-3.574,0-4.938
		c1.363-1.365,3.574-1.365,4.938,0C275.572,158.943,275.572,161.154,274.207,162.518"/>
</g>
<g>
	<path fill="#FAFAFA" d="M269.27,157.58c1.361-1.363,3.576-1.363,4.938,0c1.361,1.361,1.361,3.576,0,4.938
		c-1.361,1.359-3.576,1.359-4.938,0C267.908,161.156,267.908,158.941,269.27,157.58 M268.035,156.346
		c-2.045,2.043-2.045,5.359,0,7.406c2.045,2.045,5.361,2.045,7.406,0c2.047-2.047,2.047-5.363,0-7.406
		C273.396,154.299,270.08,154.299,268.035,156.346"/>
</g>
<g>
	<polygon points="295.193,176.096 298.896,179.801 298.896,172.393 	"/>
</g>
<g>
	<g>
		<rect x="263.01" y="196.498" fill="#FFFFFF" width="47.338" height="2.287"/>
	</g>
	<g>
		<rect x="263.01" y="204.275" fill="#FFFFFF" width="47.338" height="2.287"/>
	</g>
</g>
</svg>
